<svg width="90" height="24" viewBox="0 0 90 24" fill="none" xmlns="http://www.w3.org/2000/svg">
<rect x="5.5" y="1.5" width="13" height="21" rx="2.5" fill="#8B4484" stroke="#2B2B2B"/>
<rect x="6" y="5" width="12" height="15" fill="#FFDBD0"/>
<path d="M23.0568 11.2727H24.3182L27.2841 18.517H27.3864L30.3523 11.2727H31.6136V20H30.625V13.3693H30.5398L27.8125 20H26.858L24.1307 13.3693H24.0455V20H23.0568V11.2727ZM35.5224 20.1534C35.1076 20.1534 34.7312 20.0753 34.3931 19.919C34.055 19.7599 33.7866 19.5312 33.5877 19.233C33.3888 18.9318 33.2894 18.5682 33.2894 18.142C33.2894 17.767 33.3633 17.4631 33.511 17.2301C33.6587 16.9943 33.8562 16.8097 34.1033 16.6761C34.3505 16.5426 34.6232 16.4432 34.9215 16.3778C35.2227 16.3097 35.5252 16.2557 35.8292 16.2159C36.2269 16.1648 36.5494 16.1264 36.7965 16.1009C37.0465 16.0724 37.2283 16.0256 37.342 15.9602C37.4585 15.8949 37.5167 15.7812 37.5167 15.6193V15.5852C37.5167 15.1648 37.4016 14.8381 37.1715 14.6051C36.9442 14.3722 36.5991 14.2557 36.136 14.2557C35.6559 14.2557 35.2795 14.3608 35.0067 14.571C34.734 14.7812 34.5423 15.0057 34.4315 15.2443L33.4769 14.9034C33.6474 14.5057 33.8746 14.196 34.1587 13.9744C34.4457 13.75 34.7582 13.5937 35.0962 13.5057C35.4371 13.4148 35.7724 13.3693 36.1019 13.3693C36.3121 13.3693 36.5536 13.3949 36.8263 13.446C37.1019 13.4943 37.3675 13.5952 37.6232 13.7486C37.8817 13.902 38.0962 14.1335 38.2667 14.4432C38.4371 14.7528 38.5224 15.1676 38.5224 15.6875V20H37.5167V19.1136H37.4656C37.3974 19.2557 37.2837 19.4077 37.1246 19.5696C36.9656 19.7315 36.7539 19.8693 36.4897 19.983C36.2255 20.0966 35.9031 20.1534 35.5224 20.1534ZM35.6758 19.25C36.0735 19.25 36.4087 19.1719 36.6815 19.0156C36.957 18.8594 37.1644 18.6577 37.3036 18.4105C37.4457 18.1634 37.5167 17.9034 37.5167 17.6307V16.7102C37.4741 16.7614 37.3803 16.8082 37.2354 16.8509C37.0934 16.8906 36.9286 16.9261 36.7411 16.9574C36.5565 16.9858 36.3761 17.0114 36.1999 17.0341C36.0266 17.054 35.886 17.071 35.7781 17.0852C35.5167 17.1193 35.2724 17.1747 35.0451 17.2514C34.8207 17.3253 34.6388 17.4375 34.4996 17.5881C34.3633 17.7358 34.2951 17.9375 34.2951 18.1932C34.2951 18.5426 34.4244 18.8068 34.6829 18.9858C34.9442 19.1619 35.2752 19.25 35.6758 19.25ZM44.483 17.3239V13.4545H45.4886V20H44.483V18.892H44.4148C44.2614 19.2244 44.0227 19.5071 43.6989 19.7401C43.375 19.9702 42.9659 20.0852 42.4716 20.0852C42.0625 20.0852 41.6989 19.9957 41.3807 19.8168C41.0625 19.6349 40.8125 19.3622 40.6307 18.9986C40.4489 18.6321 40.358 18.1705 40.358 17.6136V13.4545H41.3636V17.5455C41.3636 18.0227 41.4972 18.4034 41.7642 18.6875C42.0341 18.9716 42.3778 19.1136 42.7955 19.1136C43.0455 19.1136 43.2997 19.0497 43.5582 18.9219C43.8196 18.794 44.0384 18.598 44.2145 18.3338C44.3935 18.0696 44.483 17.733 44.483 17.3239ZM47.3306 20V13.4545H48.3363V20H47.3306ZM47.842 12.3636C47.646 12.3636 47.4769 12.2969 47.3349 12.1634C47.1957 12.0298 47.1261 11.8693 47.1261 11.6818C47.1261 11.4943 47.1957 11.3338 47.3349 11.2003C47.4769 11.0668 47.646 11 47.842 11C48.038 11 48.2056 11.0668 48.3448 11.2003C48.4869 11.3338 48.5579 11.4943 48.5579 11.6818C48.5579 11.8693 48.4869 12.0298 48.3448 12.1634C48.2056 12.2969 48.038 12.3636 47.842 12.3636ZM50.9112 20.0682C50.701 20.0682 50.5206 19.9929 50.37 19.8423C50.2195 19.6918 50.1442 19.5114 50.1442 19.3011C50.1442 19.0909 50.2195 18.9105 50.37 18.7599C50.5206 18.6094 50.701 18.5341 50.9112 18.5341C51.1214 18.5341 51.3018 18.6094 51.4524 18.7599C51.603 18.9105 51.6783 19.0909 51.6783 19.3011C51.6783 19.4403 51.6428 19.5682 51.5717 19.6847C51.5036 19.8011 51.4112 19.8949 51.2947 19.9659C51.1811 20.0341 51.0533 20.0682 50.9112 20.0682ZM54.6761 11.2727V20H53.6193V11.2727H54.6761ZM57.6644 16.0625V20H56.6587V13.4545H57.6303V14.4773H57.7156C57.869 14.1449 58.1019 13.8778 58.4144 13.6761C58.7269 13.4716 59.1303 13.3693 59.6246 13.3693C60.0678 13.3693 60.4556 13.4602 60.788 13.642C61.1204 13.821 61.3789 14.0938 61.5636 14.4602C61.7482 14.8239 61.8406 15.2841 61.8406 15.8409V20H60.8349V15.9091C60.8349 15.3949 60.7013 14.9943 60.4343 14.7074C60.1673 14.4176 59.8008 14.2727 59.3349 14.2727C59.0138 14.2727 58.7269 14.3423 58.4741 14.4815C58.2241 14.6207 58.0266 14.8239 57.8817 15.0909C57.7369 15.358 57.6644 15.6818 57.6644 16.0625ZM68.3146 14.9205L67.4112 15.1761C67.3544 15.0256 67.2706 14.8793 67.1598 14.7372C67.0518 14.5923 66.9041 14.473 66.7166 14.3793C66.5291 14.2855 66.2891 14.2386 65.9964 14.2386C65.5959 14.2386 65.2621 14.331 64.995 14.5156C64.7308 14.6974 64.5987 14.929 64.5987 15.2102C64.5987 15.4602 64.6896 15.6577 64.8714 15.8026C65.0533 15.9474 65.3374 16.0682 65.7237 16.1648L66.6953 16.4034C67.2805 16.5455 67.7166 16.7628 68.0036 17.0554C68.2905 17.3452 68.4339 17.7187 68.4339 18.1761C68.4339 18.5511 68.326 18.8864 68.1101 19.1818C67.897 19.4773 67.5987 19.7102 67.2152 19.8807C66.8317 20.0511 66.3857 20.1364 65.8771 20.1364C65.2095 20.1364 64.657 19.9915 64.2195 19.7017C63.782 19.4119 63.505 18.9886 63.3885 18.4318L64.343 18.1932C64.4339 18.5455 64.6058 18.8097 64.8587 18.9858C65.1143 19.1619 65.4482 19.25 65.8601 19.25C66.3288 19.25 66.701 19.1506 66.9766 18.9517C67.255 18.75 67.3942 18.5085 67.3942 18.2273C67.3942 18 67.3146 17.8097 67.1555 17.6562C66.9964 17.5 66.7521 17.3835 66.4226 17.3068L65.3317 17.0511C64.7322 16.9091 64.2919 16.6889 64.0107 16.3906C63.7322 16.0895 63.593 15.7131 63.593 15.2614C63.593 14.892 63.6967 14.5653 63.9041 14.2812C64.1143 13.9972 64.3999 13.7741 64.7607 13.6122C65.1243 13.4503 65.5362 13.3693 65.9964 13.3693C66.6442 13.3693 67.1527 13.5114 67.522 13.7955C67.8942 14.0795 68.1584 14.4545 68.3146 14.9205ZM72.6921 20.1364C72.0614 20.1364 71.5174 19.9972 71.06 19.7188C70.6055 19.4375 70.2546 19.0455 70.0075 18.5426C69.7631 18.0369 69.641 17.4489 69.641 16.7784C69.641 16.108 69.7631 15.517 70.0075 15.0057C70.2546 14.4915 70.5984 14.0909 71.0387 13.804C71.4819 13.5142 71.9989 13.3693 72.5898 13.3693C72.9308 13.3693 73.2674 13.4261 73.5998 13.5398C73.9322 13.6534 74.2347 13.8381 74.5075 14.0938C74.7802 14.3466 74.9975 14.6818 75.1594 15.0994C75.3214 15.517 75.4023 16.0312 75.4023 16.642V17.0682H70.3569V16.1989H74.3796C74.3796 15.8295 74.3058 15.5 74.158 15.2102C74.0131 14.9205 73.8058 14.6918 73.5359 14.5241C73.2688 14.3565 72.9535 14.2727 72.5898 14.2727C72.1893 14.2727 71.8427 14.3722 71.5501 14.571C71.2603 14.767 71.0373 15.0227 70.881 15.3381C70.7248 15.6534 70.6467 15.9915 70.6467 16.3523V16.9318C70.6467 17.4261 70.7319 17.8452 70.9023 18.1889C71.0756 18.5298 71.3157 18.7898 71.6225 18.9688C71.9293 19.1449 72.2859 19.233 72.6921 19.233C72.9563 19.233 73.195 19.196 73.408 19.1222C73.6239 19.0455 73.81 18.9318 73.9663 18.7812C74.1225 18.6278 74.2433 18.4375 74.3285 18.2102L75.3001 18.483C75.1978 18.8125 75.0259 19.1023 74.7844 19.3523C74.543 19.5994 74.2447 19.7926 73.8896 19.9318C73.5344 20.0682 73.1353 20.1364 72.6921 20.1364ZM79.7788 13.4545V14.3068H76.3867V13.4545H79.7788ZM77.3754 11.8864H78.381V18.125C78.381 18.4091 78.4222 18.6222 78.5046 18.7642C78.5898 18.9034 78.6978 18.9972 78.8285 19.0455C78.962 19.0909 79.1026 19.1136 79.2504 19.1136C79.3612 19.1136 79.4521 19.108 79.5231 19.0966C79.5941 19.0824 79.6509 19.071 79.6935 19.0625L79.8981 19.9659C79.8299 19.9915 79.7347 20.017 79.6126 20.0426C79.4904 20.071 79.3356 20.0852 79.1481 20.0852C78.864 20.0852 78.5856 20.0241 78.3129 19.902C78.043 19.7798 77.8185 19.5938 77.6396 19.3438C77.4634 19.0938 77.3754 18.7784 77.3754 18.3977V11.8864ZM85.8107 14.9205L84.9073 15.1761C84.8505 15.0256 84.7667 14.8793 84.6559 14.7372C84.5479 14.5923 84.4002 14.473 84.2127 14.3793C84.0252 14.2855 83.7852 14.2386 83.4925 14.2386C83.092 14.2386 82.7582 14.331 82.4911 14.5156C82.2269 14.6974 82.0948 14.929 82.0948 15.2102C82.0948 15.4602 82.1857 15.6577 82.3675 15.8026C82.5494 15.9474 82.8335 16.0682 83.2198 16.1648L84.1914 16.4034C84.7766 16.5455 85.2127 16.7628 85.4996 17.0554C85.7866 17.3452 85.93 17.7187 85.93 18.1761C85.93 18.5511 85.8221 18.8864 85.6062 19.1818C85.3931 19.4773 85.0948 19.7102 84.7113 19.8807C84.3278 20.0511 83.8817 20.1364 83.3732 20.1364C82.7056 20.1364 82.1531 19.9915 81.7156 19.7017C81.2781 19.4119 81.0011 18.9886 80.8846 18.4318L81.8391 18.1932C81.93 18.5455 82.1019 18.8097 82.3548 18.9858C82.6104 19.1619 82.9442 19.25 83.3562 19.25C83.8249 19.25 84.1971 19.1506 84.4727 18.9517C84.7511 18.75 84.8903 18.5085 84.8903 18.2273C84.8903 18 84.8107 17.8097 84.6516 17.6562C84.4925 17.5 84.2482 17.3835 83.9187 17.3068L82.8278 17.0511C82.2283 16.9091 81.788 16.6889 81.5067 16.3906C81.2283 16.0895 81.0891 15.7131 81.0891 15.2614C81.0891 14.892 81.1928 14.5653 81.4002 14.2812C81.6104 13.9972 81.896 13.7741 82.2567 13.6122C82.6204 13.4503 83.0323 13.3693 83.4925 13.3693C84.1403 13.3693 84.6488 13.5114 85.0181 13.7955C85.3903 14.0795 85.6545 14.4545 85.8107 14.9205Z" fill="black"/>
</svg>
